<?xml version="1.0" encoding="UTF-8"?>
<!DOCTYPE svg PUBLIC "-//W3C//DTD SVG 1.1//EN" "http://www.w3.org/Graphics/SVG/1.1/DTD/svg11.dtd">
<!-- Creator: CorelDRAW -->
<svg xmlns="http://www.w3.org/2000/svg" xml:space="preserve" width="1.66666in" height="1.66666in" version="1.1" style="shape-rendering:geometricPrecision; text-rendering:geometricPrecision; image-rendering:optimizeQuality; fill-rule:evenodd; clip-rule:evenodd"
viewBox="0 0 1666.66 1666.66"
 xmlns:xlink="http://www.w3.org/1999/xlink"
 xmlns:xodm="http://www.corel.com/coreldraw/odm/2003">
 <defs>
  <style type="text/css">
   <![CDATA[
    .str0 {stroke:#FEFEFE;stroke-width:6.67;stroke-miterlimit:2.61313}
    .str1 {stroke:#FEFEFE;stroke-width:3;stroke-miterlimit:2.61313}
    .fil0 {fill:#FEFEFE;fill-rule:nonzero}
   ]]>
  </style>
 </defs>
 <g id="Layer_x0020_1">
  <metadata id="CorelCorpID_0Corel-Layer"/>
  <g id="_2277980905952">
   <g>
    <path class="fil0 str0" d="M337.77 771.12c10.01,-50.17 33.44,-81.68 34.94,-83.63 9.41,-12.25 27.54,-15.12 40.61,-6.34 13,8.76 15.51,25.41 6.69,38.04 -14.52,20.78 -33.5,76.95 -24.65,126.33 8.85,49.38 23.87,89.32 105.96,104.1 52.09,9.36 57.23,49.36 60.96,78.55 4.15,32.07 9.3,72.01 58.92,115.76 19.54,17.25 44.57,30.13 71.06,43.72 13.15,6.76 26.88,13.83 40.47,21.83 20.42,-43.4 37.3,-117.72 35.89,-162.1 -1.74,-54.96 -20.76,-107.39 -54.97,-151.62l-7.39 -9.56 2.35 -11.61c4.2,-20.59 5.93,-41.48 5.48,-62.17 -10.33,3.39 -23.68,5.65 -36.84,5.53 -55.8,-0.54 -98.71,-22.04 -127.74,-56.73 -50.12,-59.82 -38.61,-126.37 -36.24,-161.21 2.35,-34.83 4.52,-62.55 8.73,-101.88 6.52,-60.96 14.58,-136.85 8.48,-163.81 -18.83,-83 -61.62,-81.63 -77.72,-81.13 -16.09,0.51 -29.49,-11.31 -29.96,-26.38 -0.49,-15.1 12.15,-27.73 28.23,-28.24 40.12,-1.26 111.21,13.15 136.37,124.14 8.02,35.31 0.14,109.2 -7.49,180.65 -4.2,39.22 -7.72,67.65 -8.47,99.3 -0.75,31.66 -5.88,89.93 24,124.86 18.76,21.93 46.49,33.81 85.31,35.84 14.07,0.88 44.98,-13.02 61.48,-41.27 9.78,-21.9 14.62,-45.63 13.87,-69.61 -1.12,-35.37 -14.02,-68.92 -37.26,-97.04l-14.23 -17.21 14.77 -16.89c27.36,-31.3 41.72,-70.62 40.44,-110.73 -1.07,-33.67 -12.8,-65.8 -33.91,-92.9l-13.07 -16.75 13.78 -16.37c26.11,-30.97 39.8,-69.65 38.56,-109.01 -3.07,-96.86 -69.93,-162.46 -162.56,-159.54 -63.97,2.03 -111.9,28.56 -138.61,90.42 -64.75,-17.17 -140.5,39.09 -157.41,95 -17.51,57.92 -6.84,127.26 66.48,215.02 10.87,13 22.45,24.69 34.46,34.73 12,9.99 13.06,27.26 2.35,38.55 -5.56,5.87 -13.15,8.99 -20.85,9.23 -7.19,0.22 -14.45,-2.04 -20.24,-6.86 -14.59,-12.17 -28.58,-26.23 -41.57,-41.78 -52.41,-62.74 -71.13,-133.39 -77.7,-181.19 -110.7,75.68 -124.94,214.94 -74.52,291.51 -64.67,97.35 35.85,216.43 162.77,210.47z"/>
    <path class="fil0 str0" d="M664.17 1235.61c-29.56,-12.42 -58.01,-29.79 -82.91,-51.76 -64.97,-57.27 -72.04,-112.43 -76.75,-148.92 -3.83,-29.75 -5.02,-29.94 -14.37,-31.64 -47.29,-8.49 -79.83,-23.79 -102.51,-43.25 -28.1,12.29 -55.67,17.85 -81.13,18.65 -74.98,2.38 -132.39,-32.86 -135.65,-34.93 -13.33,-8.37 -16.9,-25.33 -7.94,-37.9 8.96,-12.53 27.05,-15.95 40.29,-7.65 3.18,1.98 73.24,44.15 150.21,16.46 -7.49,-15.93 -22.2,-49.22 -21.21,-88.35 -122.24,3.35 -235.34,-68.9 -240.22,-189.86 -158.01,232.15 30.24,449.67 244.96,511.19 57.78,16.56 99.44,74.44 100,134.76 0.07,10.54 -1.35,26.37 -7.77,44.09 22.82,4.29 49.67,12.06 76.46,24.43 -6.58,-41.37 -1.38,-76 -1.01,-78.28 2.35,-14.93 17.26,-25.22 33.05,-23.14 15.87,2.14 26.85,15.98 24.53,30.89 -0.12,0.72 -13.31,87.67 25.06,128.33 20.38,21.59 40.72,57.43 46.59,97.22 2.2,14.92 -8.91,28.77 -24.84,30.9 -1.06,0.12 -2.11,0.22 -3.16,0.25 -14.65,0.47 -27.59,-9.49 -29.63,-23.5 -17.21,-116.56 -136.8,-132.74 -179.07,-136.98 -19.1,19.43 -47.08,37.93 -88.33,51.69 -2.92,1 -5.87,1.48 -8.79,1.57 -12.33,0.4 -24.01,-6.63 -28.32,-18.13 -5.34,-14.2 2.63,-29.84 17.81,-34.91 57.89,-19.35 89.57,-52.65 89.2,-93.77 -0.31,-36.45 -26.76,-73.13 -60.2,-83.48 -119.61,-37 -207.39,-97.49 -261.69,-179.94 -70.19,183.53 81.92,261.44 179.2,249.94 15.74,-1.63 30.47,8.75 32.42,23.72 1.9,15 -9.47,28.64 -25.43,30.5 -7.91,0.93 -15.62,1.49 -23.16,1.74 -33.52,1.07 -63.25,-4.31 -88.87,-12.81 -22.89,101.37 80.83,270.41 270.31,200.9 23.73,132.89 219.65,194.36 332.6,68.09 111.12,-124.24 34.02,-302.49 -69.74,-346.13z"/>
   </g>
   <path class="fil0 str1" d="M796.11 829.44l8.24 -25.47c19.07,6.7 32.86,12.49 41.54,17.41 -2.28,-21.66 -3.51,-36.61 -3.63,-44.73l26.21 0c-0.37,11.88 -1.72,26.7 -4.19,44.55 12.37,-6.22 26.52,-12 42.45,-17.23l8.25 25.47c-15.2,5.04 -30.09,8.43 -44.73,10.09 7.32,6.34 17.59,17.72 30.89,34.02l-21.53 15.32c-6.96,-9.47 -15.2,-22.4 -24.67,-38.7 -8.93,16.92 -16.74,29.85 -23.44,38.7l-21.17 -15.32c13.84,-17.17 23.81,-28.48 29.78,-34.02 -15.44,-3.01 -30.09,-6.4 -44,-10.09zm143.67 0l8.25 -25.47c19.07,6.7 32.85,12.49 41.53,17.41 -2.28,-21.66 -3.51,-36.61 -3.63,-44.73l26.21 0c-0.37,11.88 -1.72,26.7 -4.19,44.55 12.37,-6.22 26.52,-12 42.46,-17.23l8.25 25.47c-15.2,5.04 -30.09,8.43 -44.73,10.09 7.32,6.34 17.59,17.72 30.89,34.02l-21.54 15.32c-6.95,-9.47 -15.2,-22.4 -24.67,-38.7 -8.93,16.92 -16.74,29.85 -23.44,38.7l-21.17 -15.32c13.84,-17.17 23.81,-28.48 29.78,-34.02 -15.44,-3.01 -30.09,-6.4 -44,-10.09zm143.67 0l8.25 -25.47c19.07,6.7 32.85,12.49 41.53,17.41 -2.28,-21.66 -3.51,-36.61 -3.63,-44.73l26.21 0c-0.37,11.88 -1.72,26.7 -4.19,44.55 12.37,-6.22 26.52,-12 42.46,-17.23l8.24 25.47c-15.2,5.04 -30.09,8.43 -44.73,10.09 7.32,6.34 17.6,17.72 30.89,34.02l-21.54 15.32c-6.95,-9.47 -15.2,-22.4 -24.67,-38.7 -8.92,16.92 -16.74,29.85 -23.44,38.7l-21.16 -15.32c13.84,-17.17 23.81,-28.48 29.78,-34.02 -15.44,-3.01 -30.09,-6.4 -44,-10.09zm143.67 0l8.25 -25.47c19.07,6.7 32.85,12.49 41.53,17.41 -2.28,-21.66 -3.51,-36.61 -3.63,-44.73l26.21 0c-0.37,11.88 -1.72,26.7 -4.19,44.55 12.37,-6.22 26.52,-12 42.45,-17.23l8.25 25.47c-15.2,5.04 -30.09,8.43 -44.73,10.09 7.32,6.34 17.6,17.72 30.89,34.02l-21.53 15.32c-6.96,-9.47 -15.2,-22.4 -24.67,-38.7 -8.92,16.92 -16.74,29.85 -23.44,38.7l-21.16 -15.32c13.84,-17.17 23.81,-28.48 29.78,-34.02 -15.44,-3.01 -30.09,-6.4 -44,-10.09zm143.67 0l8.24 -25.47c19.07,6.7 32.85,12.49 41.54,17.41 -2.28,-21.66 -3.51,-36.61 -3.63,-44.73l26.21 0c-0.37,11.88 -1.72,26.7 -4.19,44.55 12.37,-6.22 26.52,-12 42.45,-17.23l8.25 25.47c-15.2,5.04 -30.09,8.43 -44.73,10.09 7.32,6.34 17.59,17.72 30.89,34.02l-21.53 15.32c-6.96,-9.47 -15.2,-22.4 -24.67,-38.7 -8.93,16.92 -16.74,29.85 -23.44,38.7l-21.17 -15.32c13.84,-17.17 23.81,-28.48 29.78,-34.02 -15.44,-3.01 -30.09,-6.4 -44,-10.09zm143.67 0l8.25 -25.47c19.07,6.7 32.85,12.49 41.53,17.41 -2.28,-21.66 -3.51,-36.61 -3.63,-44.73l26.21 0c-0.37,11.88 -1.72,26.7 -4.19,44.55 12.37,-6.22 26.52,-12 42.46,-17.23l8.25 25.47c-15.2,5.04 -30.09,8.43 -44.74,10.09 7.32,6.34 17.6,17.72 30.89,34.02l-21.54 15.32c-6.95,-9.47 -15.2,-22.4 -24.67,-38.7 -8.92,16.92 -16.73,29.85 -23.44,38.7l-21.16 -15.32c13.84,-17.17 23.81,-28.48 29.78,-34.02 -15.44,-3.01 -30.09,-6.4 -44,-10.09zm-718.34 243.25l8.24 -25.47c19.07,6.7 32.86,12.49 41.54,17.41 -2.28,-21.66 -3.51,-36.61 -3.63,-44.73l26.21 0c-0.37,11.88 -1.72,26.7 -4.19,44.55 12.37,-6.22 26.52,-12 42.45,-17.23l8.25 25.47c-15.2,5.04 -30.09,8.43 -44.73,10.09 7.32,6.34 17.59,17.72 30.89,34.02l-21.53 15.32c-6.96,-9.48 -15.2,-22.4 -24.67,-38.7 -8.93,16.92 -16.74,29.85 -23.44,38.7l-21.17 -15.32c13.84,-17.17 23.81,-28.48 29.78,-34.02 -15.44,-3.01 -30.09,-6.4 -44,-10.09zm143.67 0l8.25 -25.47c19.07,6.7 32.85,12.49 41.53,17.41 -2.28,-21.66 -3.51,-36.61 -3.63,-44.73l26.21 0c-0.37,11.88 -1.72,26.7 -4.19,44.55 12.37,-6.22 26.52,-12 42.46,-17.23l8.25 25.47c-15.2,5.04 -30.09,8.43 -44.73,10.09 7.32,6.34 17.59,17.72 30.89,34.02l-21.54 15.32c-6.95,-9.48 -15.2,-22.4 -24.67,-38.7 -8.93,16.92 -16.74,29.85 -23.44,38.7l-21.17 -15.32c13.84,-17.17 23.81,-28.48 29.78,-34.02 -15.44,-3.01 -30.09,-6.4 -44,-10.09zm143.67 0l8.25 -25.47c19.07,6.7 32.85,12.49 41.53,17.41 -2.28,-21.66 -3.51,-36.61 -3.63,-44.73l26.21 0c-0.37,11.88 -1.72,26.7 -4.19,44.55 12.37,-6.22 26.52,-12 42.46,-17.23l8.24 25.47c-15.2,5.04 -30.09,8.43 -44.73,10.09 7.32,6.34 17.6,17.72 30.89,34.02l-21.54 15.32c-6.95,-9.48 -15.2,-22.4 -24.67,-38.7 -8.92,16.92 -16.74,29.85 -23.44,38.7l-21.16 -15.32c13.84,-17.17 23.81,-28.48 29.78,-34.02 -15.44,-3.01 -30.09,-6.4 -44,-10.09zm143.67 0l8.25 -25.47c19.07,6.7 32.85,12.49 41.53,17.41 -2.28,-21.66 -3.51,-36.61 -3.63,-44.73l26.21 0c-0.37,11.88 -1.72,26.7 -4.19,44.55 12.37,-6.22 26.52,-12 42.45,-17.23l8.25 25.47c-15.2,5.04 -30.09,8.43 -44.73,10.09 7.32,6.34 17.6,17.72 30.89,34.02l-21.53 15.32c-6.96,-9.48 -15.2,-22.4 -24.67,-38.7 -8.92,16.92 -16.74,29.85 -23.44,38.7l-21.16 -15.32c13.84,-17.17 23.81,-28.48 29.78,-34.02 -15.44,-3.01 -30.09,-6.4 -44,-10.09zm143.67 0l8.24 -25.47c19.07,6.7 32.85,12.49 41.54,17.41 -2.28,-21.66 -3.51,-36.61 -3.63,-44.73l26.21 0c-0.37,11.88 -1.72,26.7 -4.19,44.55 12.37,-6.22 26.52,-12 42.45,-17.23l8.25 25.47c-15.2,5.04 -30.09,8.43 -44.73,10.09 7.32,6.34 17.59,17.72 30.89,34.02l-21.53 15.32c-6.96,-9.48 -15.2,-22.4 -24.67,-38.7 -8.93,16.92 -16.74,29.85 -23.44,38.7l-21.17 -15.32c13.84,-17.17 23.81,-28.48 29.78,-34.02 -15.44,-3.01 -30.09,-6.4 -44,-10.09zm-574.67 243.25l8.24 -25.47c19.07,6.7 32.86,12.49 41.54,17.41 -2.28,-21.66 -3.51,-36.61 -3.63,-44.73l26.21 0c-0.37,11.87 -1.72,26.7 -4.19,44.55 12.37,-6.22 26.52,-12 42.45,-17.23l8.25 25.47c-15.2,5.04 -30.09,8.43 -44.73,10.09 7.32,6.33 17.59,17.72 30.89,34.02l-21.53 15.32c-6.96,-9.48 -15.2,-22.4 -24.67,-38.7 -8.93,16.92 -16.74,29.85 -23.44,38.7l-21.17 -15.32c13.84,-17.17 23.81,-28.48 29.78,-34.02 -15.44,-3.01 -30.09,-6.4 -44,-10.09zm143.67 0l8.25 -25.47c19.07,6.7 32.85,12.49 41.53,17.41 -2.28,-21.66 -3.51,-36.61 -3.63,-44.73l26.21 0c-0.37,11.87 -1.72,26.7 -4.19,44.55 12.37,-6.22 26.52,-12 42.46,-17.23l8.25 25.47c-15.2,5.04 -30.09,8.43 -44.73,10.09 7.32,6.33 17.59,17.72 30.89,34.02l-21.54 15.32c-6.95,-9.48 -15.2,-22.4 -24.67,-38.7 -8.93,16.92 -16.74,29.85 -23.44,38.7l-21.17 -15.32c13.84,-17.17 23.81,-28.48 29.78,-34.02 -15.44,-3.01 -30.09,-6.4 -44,-10.09zm143.67 0l8.25 -25.47c19.07,6.7 32.85,12.49 41.53,17.41 -2.28,-21.66 -3.51,-36.61 -3.63,-44.73l26.21 0c-0.37,11.87 -1.72,26.7 -4.19,44.55 12.37,-6.22 26.52,-12 42.46,-17.23l8.24 25.47c-15.2,5.04 -30.09,8.43 -44.73,10.09 7.32,6.33 17.6,17.72 30.89,34.02l-21.54 15.32c-6.95,-9.48 -15.2,-22.4 -24.67,-38.7 -8.92,16.92 -16.74,29.85 -23.44,38.7l-21.16 -15.32c13.84,-17.17 23.81,-28.48 29.78,-34.02 -15.44,-3.01 -30.09,-6.4 -44,-10.09zm143.67 0l8.25 -25.47c19.07,6.7 32.85,12.49 41.53,17.41 -2.28,-21.66 -3.51,-36.61 -3.63,-44.73l26.21 0c-0.37,11.87 -1.72,26.7 -4.19,44.55 12.37,-6.22 26.52,-12 42.45,-17.23l8.25 25.47c-15.2,5.04 -30.09,8.43 -44.73,10.09 7.32,6.33 17.6,17.72 30.89,34.02l-21.53 15.32c-6.96,-9.48 -15.2,-22.4 -24.67,-38.7 -8.92,16.92 -16.74,29.85 -23.44,38.7l-21.16 -15.32c13.84,-17.17 23.81,-28.48 29.78,-34.02 -15.44,-3.01 -30.09,-6.4 -44,-10.09zm-431 -973l8.24 -25.48c19.07,6.7 32.86,12.49 41.54,17.41 -2.28,-21.66 -3.51,-36.61 -3.63,-44.73l26.21 0c-0.37,11.88 -1.72,26.7 -4.19,44.55 12.37,-6.22 26.52,-12 42.45,-17.23l8.25 25.48c-15.2,5.04 -30.09,8.43 -44.73,10.09 7.32,6.34 17.59,17.72 30.89,34.02l-21.53 15.32c-6.96,-9.47 -15.2,-22.4 -24.67,-38.7 -8.93,16.92 -16.74,29.85 -23.44,38.7l-21.17 -15.32c13.84,-17.17 23.81,-28.48 29.78,-34.02 -15.44,-3.01 -30.09,-6.4 -44,-10.09zm143.67 0l8.25 -25.48c19.07,6.7 32.85,12.49 41.53,17.41 -2.28,-21.66 -3.51,-36.61 -3.63,-44.73l26.21 0c-0.37,11.88 -1.72,26.7 -4.19,44.55 12.37,-6.22 26.52,-12 42.46,-17.23l8.25 25.48c-15.2,5.04 -30.09,8.43 -44.73,10.09 7.32,6.34 17.59,17.72 30.89,34.02l-21.54 15.32c-6.95,-9.47 -15.2,-22.4 -24.67,-38.7 -8.93,16.92 -16.74,29.85 -23.44,38.7l-21.17 -15.32c13.84,-17.17 23.81,-28.48 29.78,-34.02 -15.44,-3.01 -30.09,-6.4 -44,-10.09zm143.67 0l8.25 -25.48c19.07,6.7 32.85,12.49 41.53,17.41 -2.28,-21.66 -3.51,-36.61 -3.63,-44.73l26.21 0c-0.37,11.88 -1.72,26.7 -4.19,44.55 12.37,-6.22 26.52,-12 42.46,-17.23l8.24 25.48c-15.2,5.04 -30.09,8.43 -44.73,10.09 7.32,6.34 17.6,17.72 30.89,34.02l-21.54 15.32c-6.95,-9.47 -15.2,-22.4 -24.67,-38.7 -8.92,16.92 -16.74,29.85 -23.44,38.7l-21.16 -15.32c13.84,-17.17 23.81,-28.48 29.78,-34.02 -15.44,-3.01 -30.09,-6.4 -44,-10.09zm143.67 0l8.25 -25.48c19.07,6.7 32.85,12.49 41.53,17.41 -2.28,-21.66 -3.51,-36.61 -3.63,-44.73l26.21 0c-0.37,11.88 -1.72,26.7 -4.19,44.55 12.37,-6.22 26.52,-12 42.45,-17.23l8.25 25.48c-15.2,5.04 -30.09,8.43 -44.73,10.09 7.32,6.34 17.6,17.72 30.89,34.02l-21.53 15.32c-6.96,-9.47 -15.2,-22.4 -24.67,-38.7 -8.92,16.92 -16.74,29.85 -23.44,38.7l-21.16 -15.32c13.84,-17.17 23.81,-28.48 29.78,-34.02 -15.44,-3.01 -30.09,-6.4 -44,-10.09zm-431 243.25l8.24 -25.47c19.07,6.7 32.86,12.49 41.54,17.41 -2.28,-21.66 -3.51,-36.61 -3.63,-44.73l26.21 0c-0.37,11.88 -1.72,26.7 -4.19,44.55 12.37,-6.22 26.52,-12 42.45,-17.23l8.25 25.47c-15.2,5.04 -30.09,8.43 -44.73,10.09 7.32,6.34 17.59,17.72 30.89,34.02l-21.53 15.32c-6.96,-9.47 -15.2,-22.4 -24.67,-38.7 -8.93,16.92 -16.74,29.85 -23.44,38.7l-21.17 -15.32c13.84,-17.17 23.81,-28.48 29.78,-34.02 -15.44,-3.01 -30.09,-6.4 -44,-10.09zm143.67 0l8.25 -25.47c19.07,6.7 32.85,12.49 41.53,17.41 -2.28,-21.66 -3.51,-36.61 -3.63,-44.73l26.21 0c-0.37,11.88 -1.72,26.7 -4.19,44.55 12.37,-6.22 26.52,-12 42.46,-17.23l8.25 25.47c-15.2,5.04 -30.09,8.43 -44.73,10.09 7.32,6.34 17.59,17.72 30.89,34.02l-21.54 15.32c-6.95,-9.47 -15.2,-22.4 -24.67,-38.7 -8.93,16.92 -16.74,29.85 -23.44,38.7l-21.17 -15.32c13.84,-17.17 23.81,-28.48 29.78,-34.02 -15.44,-3.01 -30.09,-6.4 -44,-10.09zm143.67 0l8.25 -25.47c19.07,6.7 32.85,12.49 41.53,17.41 -2.28,-21.66 -3.51,-36.61 -3.63,-44.73l26.21 0c-0.37,11.88 -1.72,26.7 -4.19,44.55 12.37,-6.22 26.52,-12 42.46,-17.23l8.24 25.47c-15.2,5.04 -30.09,8.43 -44.73,10.09 7.32,6.34 17.6,17.72 30.89,34.02l-21.54 15.32c-6.95,-9.47 -15.2,-22.4 -24.67,-38.7 -8.92,16.92 -16.74,29.85 -23.44,38.7l-21.16 -15.32c13.84,-17.17 23.81,-28.48 29.78,-34.02 -15.44,-3.01 -30.09,-6.4 -44,-10.09zm143.67 0l8.25 -25.47c19.07,6.7 32.85,12.49 41.53,17.41 -2.28,-21.66 -3.51,-36.61 -3.63,-44.73l26.21 0c-0.37,11.88 -1.72,26.7 -4.19,44.55 12.37,-6.22 26.52,-12 42.45,-17.23l8.25 25.47c-15.2,5.04 -30.09,8.43 -44.73,10.09 7.32,6.34 17.6,17.72 30.89,34.02l-21.53 15.32c-6.96,-9.47 -15.2,-22.4 -24.67,-38.7 -8.92,16.92 -16.74,29.85 -23.44,38.7l-21.16 -15.32c13.84,-17.17 23.81,-28.48 29.78,-34.02 -15.44,-3.01 -30.09,-6.4 -44,-10.09zm143.67 0l8.24 -25.47c19.07,6.7 32.85,12.49 41.54,17.41 -2.28,-21.66 -3.51,-36.61 -3.63,-44.73l26.21 0c-0.37,11.88 -1.72,26.7 -4.19,44.55 12.37,-6.22 26.52,-12 42.45,-17.23l8.25 25.47c-15.2,5.04 -30.09,8.43 -44.73,10.09 7.32,6.34 17.59,17.72 30.89,34.02l-21.53 15.32c-6.96,-9.47 -15.2,-22.4 -24.67,-38.7 -8.93,16.92 -16.74,29.85 -23.44,38.7l-21.17 -15.32c13.84,-17.17 23.81,-28.48 29.78,-34.02 -15.44,-3.01 -30.09,-6.4 -44,-10.09zm-574.67 -486.5l8.24 -25.48c19.07,6.7 32.86,12.49 41.54,17.41 -2.28,-21.66 -3.51,-36.61 -3.63,-44.73l26.21 0c-0.37,11.88 -1.72,26.7 -4.19,44.55 12.37,-6.22 26.52,-12 42.45,-17.23l8.25 25.48c-15.2,5.04 -30.09,8.43 -44.73,10.09 7.32,6.33 17.59,17.72 30.89,34.02l-21.53 15.32c-6.96,-9.47 -15.2,-22.4 -24.67,-38.7 -8.93,16.92 -16.74,29.84 -23.44,38.7l-21.17 -15.32c13.84,-17.17 23.81,-28.48 29.78,-34.02 -15.44,-3.02 -30.09,-6.4 -44,-10.09zm143.67 0l8.25 -25.48c19.07,6.7 32.85,12.49 41.53,17.41 -2.28,-21.66 -3.51,-36.61 -3.63,-44.73l26.21 0c-0.37,11.88 -1.72,26.7 -4.19,44.55 12.37,-6.22 26.52,-12 42.46,-17.23l8.25 25.48c-15.2,5.04 -30.09,8.43 -44.73,10.09 7.32,6.33 17.59,17.72 30.89,34.02l-21.54 15.32c-6.95,-9.47 -15.2,-22.4 -24.67,-38.7 -8.93,16.92 -16.74,29.84 -23.44,38.7l-21.17 -15.32c13.84,-17.17 23.81,-28.48 29.78,-34.02 -15.44,-3.02 -30.09,-6.4 -44,-10.09zm143.67 0l8.25 -25.48c19.07,6.7 32.85,12.49 41.53,17.41 -2.28,-21.66 -3.51,-36.61 -3.63,-44.73l26.21 0c-0.37,11.88 -1.72,26.7 -4.19,44.55 12.37,-6.22 26.52,-12 42.46,-17.23l8.24 25.48c-15.2,5.04 -30.09,8.43 -44.73,10.09 7.32,6.33 17.6,17.72 30.89,34.02l-21.54 15.32c-6.95,-9.47 -15.2,-22.4 -24.67,-38.7 -8.92,16.92 -16.74,29.84 -23.44,38.7l-21.16 -15.32c13.84,-17.17 23.81,-28.48 29.78,-34.02 -15.44,-3.02 -30.09,-6.4 -44,-10.09zm-287.33 1459.51l8.24 -25.47c19.07,6.7 32.86,12.49 41.54,17.41 -2.28,-21.66 -3.51,-36.61 -3.63,-44.73l26.21 0c-0.37,11.87 -1.72,26.7 -4.19,44.55 12.37,-6.22 26.52,-12 42.45,-17.23l8.25 25.47c-15.2,5.04 -30.09,8.43 -44.73,10.09 7.32,6.33 17.59,17.72 30.89,34.02l-21.53 15.32c-6.96,-9.48 -15.2,-22.4 -24.67,-38.7 -8.93,16.92 -16.74,29.85 -23.44,38.7l-21.17 -15.32c13.84,-17.17 23.81,-28.48 29.78,-34.02 -15.44,-3.01 -30.09,-6.4 -44,-10.09zm143.67 0l8.25 -25.47c19.07,6.7 32.85,12.49 41.53,17.41 -2.28,-21.66 -3.51,-36.61 -3.63,-44.73l26.21 0c-0.37,11.87 -1.72,26.7 -4.19,44.55 12.37,-6.22 26.52,-12 42.46,-17.23l8.25 25.47c-15.2,5.04 -30.09,8.43 -44.73,10.09 7.32,6.33 17.59,17.72 30.89,34.02l-21.54 15.32c-6.95,-9.48 -15.2,-22.4 -24.67,-38.7 -8.93,16.92 -16.74,29.85 -23.44,38.7l-21.17 -15.32c13.84,-17.17 23.81,-28.48 29.78,-34.02 -15.44,-3.01 -30.09,-6.4 -44,-10.09zm143.67 0l8.25 -25.47c19.07,6.7 32.85,12.49 41.53,17.41 -2.28,-21.66 -3.51,-36.61 -3.63,-44.73l26.21 0c-0.37,11.87 -1.72,26.7 -4.19,44.55 12.37,-6.22 26.52,-12 42.46,-17.23l8.24 25.47c-15.2,5.04 -30.09,8.43 -44.73,10.09 7.32,6.33 17.6,17.72 30.89,34.02l-21.54 15.32c-6.95,-9.48 -15.2,-22.4 -24.67,-38.7 -8.92,16.92 -16.74,29.85 -23.44,38.7l-21.16 -15.32c13.84,-17.17 23.81,-28.48 29.78,-34.02 -15.44,-3.01 -30.09,-6.4 -44,-10.09z"/>
  </g>
 </g>
</svg>
